<?xml version="1.0" standalone="no"?>
<!DOCTYPE svg PUBLIC "-//W3C//DTD SVG 20010904//EN"
 "http://www.w3.org/TR/2001/REC-SVG-20010904/DTD/svg10.dtd">
<svg version="1.0" xmlns="http://www.w3.org/2000/svg"
 width="1280.000000pt" height="640.000000pt" viewBox="0 0 1280.000000 640.000000"
 preserveAspectRatio="xMidYMid meet">
<g transform="translate(0.000000,640.000000) scale(0.100000,-0.100000)"
fill="#000000" stroke="none">
<path d="M11407 3980 c-26 -31 -27 -36 -28 -163 0 -73 -4 -154 -7 -182 l-7
-50 -72 -3 -73 -3 -2 -247 -3 -247 -40 -5 -40 -5 -3 -452 c-2 -444 -3 -453
-22 -453 -19 0 -20 9 -22 308 l-3 307 -32 3 c-24 2 -33 -1 -33 -11 0 -29 -69
-38 -90 -12 -7 8 -25 15 -41 15 -23 0 -28 -5 -31 -27 -4 -35 -48 -45 -70 -15
-15 21 -115 45 -168 40 l-35 -3 -5 -245 -5 -245 -40 0 c-39 0 -40 1 -45 39 -4
31 -12 43 -35 56 -28 15 -30 21 -33 78 l-3 61 -52 3 -52 3 -5 96 c-4 73 -9
100 -22 113 -12 11 -18 33 -18 62 l0 45 -47 -3 -48 -3 -5 -50 c-5 -46 -7 -50
-32 -53 l-28 -3 0 -262 c0 -144 -4 -268 -9 -275 -5 -8 -23 -12 -47 -10 l-39 3
-3 590 -2 591 -54 32 c-44 27 -57 31 -79 23 -14 -6 -31 -19 -37 -31 -9 -16
-21 -20 -65 -20 l-55 0 0 -39 c0 -64 -6 -71 -60 -71 l-48 0 -7 -115 c-4 -63
-5 -193 -1 -288 4 -94 3 -194 -1 -222 l-8 -50 -79 -3 c-57 -2 -82 1 -87 10 -5
7 -9 39 -9 70 0 65 0 64 -90 93 l-65 22 -5 49 c-5 48 -6 49 -40 52 -19 2 -42
9 -50 16 -8 8 -27 16 -42 20 -21 5 -30 2 -38 -14 -9 -16 -21 -20 -65 -20 l-55
0 0 -292 c0 -161 -4 -299 -8 -306 -5 -7 -31 -15 -60 -19 l-51 -6 -3 169 c-3
157 -5 172 -26 206 -21 33 -25 36 -39 23 -8 -9 -33 -15 -58 -15 -74 0 -75 1
-75 105 0 57 -4 96 -11 101 -6 3 -50 9 -97 11 -65 4 -92 10 -107 23 -31 28
-68 33 -145 19 l-70 -12 0 -351 c0 -326 -5 -394 -27 -372 -4 4 -10 74 -13 154
-5 144 -6 147 -28 150 -17 3 -25 -3 -33 -27 -8 -23 -17 -30 -42 -33 l-32 -3
-5 -85 -5 -85 -35 0 -35 0 -5 210 c-4 127 -11 226 -19 250 -7 22 -19 63 -27
92 -20 72 -34 83 -104 83 -68 0 -84 -12 -100 -71 -8 -29 -16 -39 -28 -37 -13
2 -18 16 -20 61 -2 44 -7 59 -22 67 -17 9 -20 24 -22 143 l-3 132 -30 3 c-36
5 -45 16 -45 63 0 35 -1 36 -54 49 -52 12 -69 11 -108 -5 -14 -5 -22 3 -37 37
-11 23 -23 52 -27 63 -6 18 -7 18 -18 -8 -7 -15 -26 -36 -43 -47 -43 -26 -47
-53 -45 -275 0 -104 -1 -198 -4 -208 -5 -14 -12 -17 -35 -12 -18 4 -36 2 -45
-6 -10 -8 -39 -10 -100 -5 -48 3 -90 9 -95 12 -5 3 -9 101 -9 217 l0 213 -67
66 -68 67 -85 3 -85 3 -6 35 c-4 19 -16 58 -27 85 -16 40 -25 51 -46 53 -23 3
-29 -3 -47 -45 -34 -77 -50 -202 -57 -458 l-7 -240 -25 0 -25 0 -5 225 -5 225
-37 71 c-20 39 -40 88 -44 110 l-8 39 -8 -44 c-4 -24 -24 -77 -44 -118 -29
-57 -40 -95 -48 -166 l-12 -92 -42 -3 -42 -3 0 -53 c0 -28 -5 -57 -12 -64 -7
-7 -39 -12 -75 -12 -52 0 -64 3 -73 20 -6 11 -21 20 -34 20 -16 0 -26 7 -30
23 -3 12 -6 127 -6 255 l0 232 -62 1 c-35 1 -90 2 -123 3 -33 1 -67 -3 -75
-10 -8 -6 -37 -17 -65 -23 -27 -7 -56 -17 -63 -23 -10 -8 -12 -71 -11 -278 1
-147 -2 -273 -5 -279 -19 -30 -26 2 -28 137 l-3 147 -100 0 c-69 0 -109 -5
-130 -15 l-30 -15 -3 -178 c-2 -148 -5 -177 -17 -177 -12 0 -15 21 -15 124 l0
124 -30 7 c-16 4 -38 17 -49 31 -15 20 -28 24 -69 24 -63 0 -85 18 -76 64 4
24 1 38 -11 49 -17 17 -27 19 -105 21 l-45 1 -3 128 -3 127 -129 0 c-114 0
-129 -2 -134 -17 -3 -10 -4 -183 -2 -385 3 -308 2 -367 -10 -372 -23 -9 -42 4
-53 35 -6 19 -17 29 -29 29 -11 0 -23 7 -26 16 -3 9 -6 82 -6 163 l0 148 -25
11 -25 12 0 262 c0 235 -2 260 -15 242 -14 -18 -16 -18 -29 -1 -9 11 -27 17
-57 17 -24 0 -51 5 -59 10 -25 15 -39 -27 -40 -116 0 -76 -2 -83 -25 -98 l-25
-16 0 -300 c0 -257 -2 -300 -15 -300 -21 0 -35 33 -35 85 l0 46 -92 -3 -93 -3
-3 -202 c-2 -171 -5 -203 -17 -203 -12 0 -15 15 -15 73 0 64 -3 76 -23 95 -29
27 -38 27 -60 2 -9 -11 -23 -20 -31 -20 -10 0 -15 -24 -18 -97 -6 -110 -13
-135 -37 -131 -12 3 -18 21 -23 83 -22 246 -29 542 -24 917 6 380 5 407 -11
424 -10 9 -23 27 -28 38 -6 12 -22 23 -35 24 -14 2 -30 8 -35 12 -17 14 -93
-17 -120 -48 -22 -24 -24 -36 -25 -119 l0 -93 -27 -6 c-16 -3 -33 -7 -40 -9
-7 -2 -26 3 -43 12 -40 19 -157 14 -171 -8 -5 -7 -9 -131 -9 -274 0 -279 -8
-331 -49 -347 -16 -5 -21 -16 -21 -42 0 -39 -14 -53 -35 -36 -11 9 -15 36 -16
99 0 78 -9 202 -25 354 -6 51 -10 60 -32 68 -15 6 -41 7 -61 2 l-35 -9 -13
-94 c-7 -52 -12 -166 -11 -252 1 -102 -2 -161 -10 -170 -6 -7 -12 -34 -14 -58
-3 -43 -5 -45 -35 -48 l-33 -3 0 -164 c0 -90 -3 -170 -6 -179 -5 -12 -21 -16
-70 -16 l-64 0 0 38 c-1 20 -7 48 -15 62 -8 14 -14 35 -15 47 0 19 -6 22 -47
25 l-48 3 -3 173 -2 173 -35 16 c-33 16 -36 15 -55 -2 -19 -17 -20 -32 -22
-349 l-3 -331 -28 -3 c-15 -2 -47 7 -72 19 l-45 23 0 431 0 432 -25 11 c-33
15 -100 15 -124 0 -25 -15 -51 4 -51 37 0 23 -17 35 -50 35 -10 0 -21 8 -24
18 -5 15 -19 17 -104 17 l-98 0 -38 -42 c-21 -24 -47 -43 -56 -43 -10 0 -21
-9 -25 -19 -3 -11 -12 -22 -20 -25 -13 -4 -15 -45 -15 -255 l0 -249 -23 -6
c-12 -3 -43 -6 -69 -6 -60 0 -78 17 -78 78 0 26 -9 67 -21 91 -11 25 -23 72
-26 105 -4 34 -14 73 -23 89 l-17 28 -16 -53 c-9 -29 -19 -75 -23 -103 -4 -31
-13 -56 -25 -65 -14 -11 -22 -34 -27 -80 l-7 -65 -120 -6 c-66 -3 -128 -9
-137 -13 -19 -8 -21 -4 -32 45 -6 28 -65 104 -97 127 -41 29 -79 -15 -94 -108
-4 -25 -16 -56 -26 -69 -11 -13 -19 -37 -19 -54 0 -17 -5 -68 -12 -114 -11
-76 -14 -84 -37 -90 -17 -4 -37 1 -61 14 l-35 21 -3 167 c-2 128 -6 172 -17
188 -8 12 -15 28 -15 37 1 16 -101 228 -110 229 -3 1 -16 -19 -29 -44 -26 -49
-54 -57 -59 -17 -5 31 -69 74 -93 62 -10 -6 -36 -6 -63 -1 l-46 8 0 -548 0
-549 6398 2 6397 3 3 454 c2 435 -3 531 -28 531 -15 0 -22 -38 -11 -59 6 -11
11 -53 11 -95 0 -71 -1 -76 -29 -95 -32 -23 -41 -54 -44 -148 -2 -57 -5 -65
-39 -100 -28 -29 -38 -48 -40 -78 -2 -27 -8 -40 -18 -40 -13 0 -15 34 -18 237
-2 228 -3 238 -23 249 -11 6 -27 8 -36 5 -8 -3 -24 1 -36 9 -16 11 -40 13
-107 8 -60 -4 -93 -2 -109 7 -20 10 -28 9 -52 -9 -15 -12 -42 -21 -58 -21 -16
0 -33 -6 -38 -12 -4 -7 -10 -166 -13 -353 l-5 -340 -42 -14 c-35 -13 -47 -13
-82 -1 l-41 13 0 114 c0 113 0 114 -26 123 -14 6 -58 10 -99 10 l-73 0 -7 138
c-5 75 -5 343 -1 594 6 448 6 457 -13 467 -30 16 -71 12 -121 -12 -38 -18 -46
-27 -48 -54 -3 -34 -25 -59 -42 -48 -5 3 -10 30 -10 58 0 29 -7 60 -15 71 -11
14 -13 45 -9 140 5 115 4 123 -19 159 l-24 39 -26 -32z"/>
</g>
</svg>
