<?xml version="1.0" encoding="utf-8"?>
<!-- Generator: Adobe Illustrator 16.0.0, SVG Export Plug-In . SVG Version: 6.00 Build 0)  -->
<!DOCTYPE svg PUBLIC "-//W3C//DTD SVG 1.1//EN" "http://www.w3.org/Graphics/SVG/1.1/DTD/svg11.dtd">
<svg version="1.1" id="Layer_1" xmlns="http://www.w3.org/2000/svg" xmlns:xlink="http://www.w3.org/1999/xlink" x="0px" y="0px"
	 width="16px" height="16px" viewBox="0 0 16 16" enable-background="new 0 0 16 16" xml:space="preserve">
<path fill="#FFFFFF" d="M2.5,11.5C2.5,11.225,2.724,11,3,11h10c0.276,0,0.5,0.225,0.5,0.5S13.276,12,13,12H3
	C2.724,12,2.5,11.775,2.5,11.5z M2.5,7.5C2.5,7.224,2.724,7,3,7h10c0.276,0,0.5,0.224,0.5,0.5S13.276,8,13,8H3
	C2.724,8,2.5,7.776,2.5,7.5z M2.5,3.5C2.5,3.224,2.724,3,3,3h10c0.276,0,0.5,0.224,0.5,0.5S13.276,4,13,4H3
	C2.724,4,2.5,3.776,2.5,3.5z"/>
</svg>
