<?xml version="1.0" encoding="utf-8"?>
<!-- Generator: Adobe Illustrator 16.0.0, SVG Export Plug-In . SVG Version: 6.00 Build 0)  -->
<!DOCTYPE svg PUBLIC "-//W3C//DTD SVG 1.1//EN" "http://www.w3.org/Graphics/SVG/1.1/DTD/svg11.dtd">
<svg version="1.1" id="Layer_1" xmlns="http://www.w3.org/2000/svg" xmlns:xlink="http://www.w3.org/1999/xlink" x="0px" y="0px"
	 width="16px" height="16px" viewBox="0 0 16 16" enable-background="new 0 0 16 16" xml:space="preserve">
<path fill="#007AFF" d="M8,0C7.824,0,7.65,0.006,7.477,0.017l0.064,0.998c0.306-0.02,0.612-0.02,0.918,0l0.064-0.998
	C8.349,0.006,8.174,0,8,0z M6.44,0.152c-0.346,0.069-0.684,0.16-1.012,0.27L5.749,1.37c0.287-0.098,0.582-0.177,0.884-0.237
	L6.44,0.152L6.44,0.152z M10.572,0.423c-0.331-0.112-0.669-0.202-1.012-0.27l-0.193,0.98c0.302,0.06,0.597,0.14,0.884,0.237
	L10.572,0.423z M12.445,1.348c-0.291-0.194-0.594-0.37-0.906-0.524L11.096,1.72c0.275,0.136,0.541,0.29,0.793,0.459L12.445,1.348z
	 M4.46,0.824c-0.314,0.155-0.616,0.33-0.905,0.524l0.556,0.83C4.365,2.008,4.63,1.855,4.904,1.72L4.46,0.824z M2.725,1.985
	c-0.262,0.23-0.51,0.478-0.74,0.74l0.752,0.66c0.202-0.23,0.418-0.446,0.648-0.648L2.725,1.985z M14.016,2.725
	c-0.23-0.263-0.479-0.51-0.74-0.74l-0.66,0.752c0.23,0.202,0.447,0.418,0.648,0.648L14.016,2.725z M15.176,4.46
	c-0.154-0.313-0.33-0.615-0.523-0.905l-0.83,0.556c0.169,0.253,0.322,0.518,0.457,0.793L15.176,4.46L15.176,4.46z M1.348,3.555
	c-0.194,0.289-0.37,0.591-0.524,0.906L1.72,4.904c0.136-0.275,0.29-0.54,0.459-0.793L1.348,3.555z M0.423,5.428
	c-0.112,0.331-0.202,0.668-0.27,1.011l0.98,0.194c0.06-0.302,0.14-0.597,0.237-0.884L0.423,5.428z M15.848,6.44
	c-0.067-0.343-0.158-0.681-0.27-1.012L14.63,5.749c0.099,0.287,0.177,0.582,0.237,0.884L15.848,6.44L15.848,6.44z M0.017,7.477
	c-0.022,0.348-0.022,0.698,0,1.046l0.998-0.064c-0.02-0.306-0.02-0.612,0-0.918L0.017,7.477z M16,8c0-0.174-0.006-0.349-0.018-0.523
	l-0.998,0.064c0.021,0.306,0.021,0.612,0,0.918l0.998,0.064C15.994,8.349,16,8.174,16,8z M0.152,9.561
	c0.069,0.346,0.16,0.684,0.27,1.012l0.948-0.321C1.271,9.962,1.192,9.666,1.133,9.367L0.152,9.561L0.152,9.561z M15.577,10.572
	c0.112-0.328,0.202-0.666,0.271-1.012l-0.98-0.193c-0.061,0.302-0.141,0.597-0.237,0.884L15.577,10.572z M0.824,11.54
	c0.154,0.313,0.33,0.615,0.524,0.905l0.83-0.557c-0.17-0.254-0.323-0.519-0.458-0.793L0.824,11.54L0.824,11.54z M14.652,12.445
	c0.193-0.289,0.369-0.592,0.523-0.906l-0.896-0.443c-0.135,0.275-0.289,0.541-0.459,0.793L14.652,12.445z M1.985,13.275
	c0.23,0.262,0.478,0.51,0.74,0.74l0.66-0.752c-0.229-0.203-0.446-0.419-0.648-0.648L1.985,13.275z M13.275,14.016
	c0.262-0.23,0.51-0.479,0.74-0.74l-0.752-0.66c-0.201,0.23-0.418,0.447-0.648,0.648L13.275,14.016z M11.54,15.176
	c0.313-0.154,0.616-0.33,0.905-0.523l-0.557-0.83c-0.254,0.17-0.519,0.322-0.793,0.457L11.54,15.176L11.54,15.176z M3.555,14.652
	c0.289,0.193,0.591,0.369,0.906,0.523l0.443-0.896c-0.274-0.135-0.539-0.288-0.793-0.459L3.555,14.652z M5.428,15.577
	c0.328,0.112,0.666,0.202,1.011,0.271l0.194-0.98c-0.299-0.06-0.595-0.139-0.884-0.237L5.428,15.577L5.428,15.577z M9.561,15.848
	c0.342-0.067,0.681-0.158,1.012-0.27l-0.321-0.948c-0.289,0.099-0.585,0.178-0.884,0.237L9.561,15.848L9.561,15.848z M7.477,15.982
	c0.348,0.023,0.698,0.023,1.046,0l-0.064-0.998c-0.306,0.021-0.612,0.021-0.918,0L7.477,15.982z M8.5,4.5C8.5,4.224,8.276,4,8,4
	S7.5,4.224,7.5,4.5v3h-3C4.224,7.5,4,7.724,4,8s0.224,0.5,0.5,0.5h3v3C7.5,11.775,7.724,12,8,12s0.5-0.225,0.5-0.5v-3h3
	C11.776,8.5,12,8.276,12,8s-0.224-0.5-0.5-0.5h-3V4.5z"/>
</svg>
